<svg width="428" height="3792" viewBox="0 0 428 3792" fill="none" xmlns="http://www.w3.org/2000/svg">
<path d="M1044 3792V-197H389.5H-265V3792H1044Z" fill="#001137"/>
<g style="mix-blend-mode:lighten" opacity="0.6">
<path d="M-252 0.00617981V280.526C-213.227 286.067 -173.073 283.947 -134.663 275.779C-69.9489 262.01 -9.6691 231.971 45.8126 195.973C123.068 145.843 194.549 82.7005 282.782 56.2822C325.959 43.3606 372.002 39.6912 413.235 21.5805C425.874 16.0195 437.696 8.76113 448.373 0.00617981H-252Z" fill="url(#paint0_linear_182_1426)"/>
<path d="M-242.798 306.012C-219.019 312.267 -194.858 316.366 -170.213 316.851C-146.586 317.317 -123.007 314.477 -100.034 309.1C-76.4737 303.584 -53.9915 295.173 -31.7152 285.921C-11.5117 277.563 8.14758 267.947 27.147 257.129C65.6473 235.149 101.191 208.259 133.561 178.02C137.704 174.148 141.796 170.227 145.835 166.255C150.384 161.78 155.34 157.905 160.32 153.92L167.051 148.537C169.111 146.896 170.225 145.249 171.782 143.154C173.787 140.448 176.944 138.347 179.5 136.161L187.025 129.748C205.967 113.626 225.069 97.6968 244.33 81.9617C254.023 74.0598 264.51 67.3326 275.282 60.9747C286.053 54.6169 296.776 48.3499 307.736 42.4946C329.679 30.7538 353.615 23.4392 377.309 16.046C383.27 14.1931 389.232 12.3403 395.175 10.4269C395.635 10.2815 395.441 9.54887 394.975 9.70025C371.311 17.3054 347.284 23.96 324.354 33.6542C313.643 38.1834 303.447 43.7904 293.457 49.7062C283.006 55.8885 272.331 61.6166 262.111 68.1863C251.891 74.7561 242.779 82.2099 233.461 89.8696C224.144 97.5293 214.717 105.365 205.4 113.188C195.755 121.302 186.142 129.458 176.562 137.656C174.672 139.279 172.594 140.757 171.11 142.773C170.207 143.984 169.504 145.389 168.42 146.466C167.195 147.561 165.91 148.588 164.573 149.542C159.617 153.503 154.51 157.317 149.663 161.459C145.368 165.159 141.485 169.446 137.377 173.357C133.27 177.269 129.15 181.083 124.958 184.862C116.65 192.358 108.142 199.624 99.4343 206.66C82.1028 220.68 63.9459 233.649 45.0613 245.497C26.3188 257.241 6.84183 267.77 -13.2496 277.02C-34.7928 286.932 -56.9176 295.997 -79.6483 302.833C-102.833 309.803 -126.77 314.441 -150.972 315.743C-175.725 316.992 -200.533 314.928 -224.738 309.603C-230.729 308.307 -236.679 306.848 -242.604 305.285C-242.7 305.258 -242.803 305.27 -242.891 305.319C-242.978 305.368 -243.043 305.449 -243.07 305.546C-243.097 305.642 -243.085 305.745 -243.037 305.833C-242.988 305.92 -242.906 305.985 -242.81 306.012H-242.798Z" fill="url(#paint1_linear_182_1426)"/>
<path d="M182.233 647.016C186.298 603.729 201.353 561.948 225.368 525.721C231.577 516.354 238.502 507.737 245.663 499.115C249.165 494.876 252.327 490.468 256.119 486.502C259.912 482.536 263.777 478.491 267.685 474.561C283.115 459.048 299.6 444.431 318.199 432.781C320.252 431.498 322.33 430.244 324.426 429.039C326.777 427.683 329.515 426.617 331.696 425.031C332.648 424.353 333.447 423.257 334.295 422.439C335.429 421.39 336.679 420.474 338.021 419.708C340.667 418.13 343.328 416.574 346.006 415.04C355.861 409.389 365.885 404.05 376.079 399.024C396.624 388.94 417.665 379.898 439.122 371.934C460.156 364.062 481.53 357.044 502.964 350.45C513.796 347.124 524.65 343.895 535.527 340.762C546.832 337.468 558.27 334.707 569.556 331.347C575.293 329.651 580.976 327.786 586.58 325.691C589.415 324.637 592.517 322.821 595.552 322.664C598.145 322.518 600.26 322.839 602.725 321.907C614.381 317.523 625.989 313.006 637.603 308.519C648.592 304.28 659.746 300.387 670.445 295.434C681.053 290.517 691.328 284.922 701.457 279.085C703.701 277.915 705.793 276.473 707.685 274.792C709.7 272.755 712.165 271.218 714.882 270.305C715.342 270.16 715.149 269.433 714.682 269.579C709.781 271.117 706.746 275.161 702.414 277.662C697.186 280.69 691.927 283.645 686.602 286.49C675.713 292.32 664.46 297.443 652.912 301.828C641.304 306.242 629.739 310.759 618.15 315.222L609.402 318.57C606.372 319.709 602.949 321.598 599.708 321.901C597.497 322.112 595.225 321.477 593.129 322.318C590.1 323.529 587.071 324.74 583.963 325.855C572.579 329.96 560.941 332.86 549.243 336.009C538.09 339.036 527.027 342.439 515.959 345.752C494.076 352.303 472.291 359.194 450.778 366.89C429.665 374.447 408.824 382.791 388.493 392.255C377.992 397.147 367.632 402.346 357.414 407.853C352.305 410.61 347.244 413.447 342.232 416.366C339.911 417.716 337.191 418.933 335.089 420.605C334.132 421.367 333.344 422.421 332.448 423.226C331.098 424.402 329.601 425.397 327.995 426.187C309.214 436.445 292.378 449.802 276.875 464.516C268.854 472.121 260.772 479.993 253.418 488.282C249.692 492.491 246.566 497.195 242.743 501.319C239.228 505.248 235.937 509.372 232.886 513.671C207.217 548.415 189.8 589.178 183.311 631.976C182.556 636.977 181.95 642.001 181.494 647.047C181.445 647.537 182.203 647.531 182.251 647.047L182.233 647.016Z" fill="url(#paint2_linear_182_1426)"/>
<path d="M-252 0.00617981V177.451C-239.102 190.007 -224.219 200.349 -207.95 208.059C-165.845 227.962 -116.828 230.366 -71.2757 220.678C-25.7235 210.99 16.7147 189.833 55.7602 164.487C110.145 129.198 160.477 84.7411 222.593 66.1398C252.987 57.0572 285.393 54.4596 314.442 41.7076C333.738 33.2304 351.816 18.3289 361.091 0.00617981H-252Z" fill="url(#paint3_linear_182_1426)"/>
<path d="M723.927 308.277C705.471 310.013 687.133 312.82 669.003 316.681C582.872 334.998 502.642 374.992 428.786 422.912C325.959 489.633 230.802 573.689 113.356 608.851C55.8933 626.054 -5.38609 630.934 -60.2922 655.039L-61.5645 655.609H723.927V308.277Z" fill="url(#paint4_linear_182_1426)"/>
<path d="M723.927 365.818C686.269 362.633 647.89 365.527 610.928 373.387C537.823 388.936 469.728 422.881 407.037 463.553C319.755 520.186 238.993 591.528 139.31 621.373C94.7694 634.694 47.5452 639.326 4.21033 655.609H723.933L723.927 365.818Z" fill="url(#paint5_linear_182_1426)"/>
<path d="M21.4764 655.59C40.978 567.574 119.669 501.537 213.524 501.537C307.378 501.537 386.057 567.574 405.571 655.59H406.879C387.335 566.877 308.063 500.277 213.512 500.277C118.96 500.277 39.6876 566.877 20.1678 655.59H21.4764Z" fill="#EA227A"/>
<path d="M4.64057 650.304C3.74394 649.093 2.8231 648.367 2.85339 647.725C2.88368 647.083 3.9257 646.459 4.51941 645.83C5.12524 646.435 6.19149 646.962 6.28842 647.646C6.38535 648.33 5.47661 649.045 4.64057 650.304Z" fill="#00255B"/>
<path d="M8.56622 636.85C7.59084 637.576 7.01531 638.333 6.52459 638.285C6.20157 638.188 5.90747 638.013 5.66855 637.776C5.42964 637.538 5.25334 637.245 5.15541 636.922C5.07665 636.571 5.90058 635.663 6.36706 635.633C6.91837 635.609 7.51208 636.214 8.56622 636.85Z" fill="#00255B"/>
<path d="M-2.48401 614.149C-1.51469 613.417 -0.993671 612.72 -0.43631 612.696C0.0241189 612.696 0.944977 613.477 0.908627 613.835C0.846058 614.167 0.702864 614.478 0.491603 614.742C0.280343 615.006 0.00747609 615.214 -0.303027 615.348C-0.775572 615.451 -1.42987 614.767 -2.48401 614.149Z" fill="#00255B"/>
<path d="M302.138 159.225C303.764 159.225 305.082 157.907 305.082 156.282C305.082 154.657 303.764 153.339 302.138 153.339C300.512 153.339 299.194 154.657 299.194 156.282C299.194 157.907 300.512 159.225 302.138 159.225Z" fill="white"/>
<path d="M360.867 609.105C362.493 609.105 363.812 607.788 363.812 606.163C363.812 604.537 362.493 603.22 360.867 603.22C359.241 603.22 357.923 604.537 357.923 606.163C357.923 607.788 359.241 609.105 360.867 609.105Z" fill="white"/>
<path d="M57.2992 400.12C58.9253 400.12 60.2435 398.803 60.2435 397.177C60.2435 395.552 58.9253 394.235 57.2992 394.235C55.6731 394.235 54.3549 395.552 54.3549 397.177C54.3549 398.803 55.6731 400.12 57.2992 400.12Z" fill="#EA227A"/>
<path d="M108.401 570.038C108.401 570.83 108.166 571.603 107.726 572.262C107.286 572.92 106.66 573.433 105.929 573.736C105.197 574.039 104.392 574.118 103.615 573.964C102.838 573.809 102.125 573.428 101.565 572.868C101.004 572.308 100.623 571.595 100.469 570.819C100.314 570.042 100.393 569.238 100.696 568.506C101 567.775 101.513 567.15 102.171 566.71C102.83 566.27 103.604 566.036 104.396 566.036C105.458 566.036 106.477 566.457 107.228 567.208C107.979 567.958 108.401 568.977 108.401 570.038Z" fill="white"/>
<path d="M405.377 42.761H399.967V60.9929H405.377V42.761Z" fill="#EA227A"/>
<path d="M411.799 54.5745V49.1673H393.558V54.5745H411.799Z" fill="#EA227A"/>
<path d="M41.2809 210.257H37.7732V222.076H41.2809V210.257Z" fill="#EA227A"/>
<path d="M45.4369 217.917V214.411H33.6112V217.917H45.4369Z" fill="#EA227A"/>
<path d="M449.475 459.006L399.967 508.482" stroke="#EA227A" stroke-miterlimit="10"/>
<path d="M49.6838 504.655L1.60535 552.708" stroke="white" stroke-miterlimit="10"/>
<path d="M432.173 111.704L384.094 159.757" stroke="white" stroke-miterlimit="10"/>
</g>
<g style="mix-blend-mode:lighten" opacity="0.6">
<path d="M635 3791.91V3537.36C599.842 3532.33 563.432 3534.26 528.604 3541.67C469.923 3554.16 415.263 3581.42 364.955 3614.09C294.903 3659.57 230.086 3716.87 150.08 3740.84C110.928 3752.57 69.1783 3755.9 31.7901 3772.33C20.3289 3777.38 9.60944 3783.97 -0.0717163 3791.91H635Z" fill="url(#paint6_linear_182_1426)"/>
<path d="M626.655 3514.23C605.093 3508.56 583.186 3504.84 560.839 3504.4C539.414 3503.97 518.034 3506.55 497.203 3511.43C475.839 3516.44 455.453 3524.07 435.254 3532.46C416.934 3540.05 399.107 3548.77 381.88 3558.59C346.969 3578.54 314.739 3602.94 285.388 3630.38C281.63 3633.89 277.92 3637.45 274.258 3641.05C270.133 3645.11 265.639 3648.63 261.123 3652.25L255.02 3657.13C253.152 3658.62 252.142 3660.11 250.73 3662.01C248.911 3664.47 246.049 3666.38 243.731 3668.36L236.908 3674.18C219.732 3688.81 202.412 3703.26 184.946 3717.54C176.157 3724.71 166.648 3730.82 156.88 3736.59C147.113 3742.36 137.39 3748.04 127.452 3753.36C107.555 3764.01 85.8505 3770.65 64.3657 3777.36C58.9602 3779.04 53.5547 3780.72 48.1656 3782.45C47.7481 3782.59 47.9239 3783.25 48.3469 3783.11C69.8042 3776.21 91.5911 3770.17 112.384 3761.38C122.096 3757.27 131.341 3752.18 140.4 3746.81C149.876 3741.2 159.556 3736 168.823 3730.04C178.09 3724.08 186.352 3717.32 194.801 3710.37C203.25 3703.42 211.798 3696.31 220.247 3689.21C228.992 3681.84 237.709 3674.44 246.395 3667C248.109 3665.53 249.994 3664.19 251.34 3662.36C252.158 3661.26 252.795 3659.99 253.779 3659.01C254.89 3658.02 256.054 3657.08 257.267 3656.22C261.761 3652.62 266.391 3649.16 270.786 3645.4C274.681 3642.05 278.202 3638.16 281.927 3634.61C285.651 3631.06 289.387 3627.6 293.188 3624.17C300.722 3617.37 308.436 3610.77 316.332 3604.39C332.048 3591.67 348.512 3579.9 365.636 3569.15C382.631 3558.49 400.291 3548.94 418.51 3540.54C438.044 3531.55 458.106 3523.32 478.717 3517.12C499.741 3510.79 521.445 3506.58 543.391 3505.4C565.836 3504.27 588.331 3506.14 610.279 3510.97C615.712 3512.15 621.107 3513.47 626.479 3514.89C626.567 3514.92 626.66 3514.91 626.74 3514.86C626.819 3514.82 626.878 3514.74 626.902 3514.66C626.927 3514.57 626.916 3514.48 626.872 3514.4C626.828 3514.32 626.754 3514.26 626.666 3514.23H626.655Z" fill="url(#paint7_linear_182_1426)"/>
<path d="M241.254 3204.8C237.568 3244.08 223.917 3281.99 202.141 3314.86C196.51 3323.36 190.231 3331.18 183.738 3339.01C180.563 3342.85 177.695 3346.85 174.256 3350.45C170.818 3354.05 167.313 3357.72 163.769 3361.29C149.778 3375.36 134.83 3388.63 117.965 3399.2C116.103 3400.36 114.219 3401.5 112.318 3402.59C110.187 3403.83 107.704 3404.79 105.726 3406.23C104.864 3406.85 104.138 3407.84 103.369 3408.58C102.341 3409.54 101.208 3410.37 99.9909 3411.06C97.5921 3412.49 95.1786 3413.91 92.7506 3415.3C83.8146 3420.43 74.7249 3425.27 65.4813 3429.83C46.8521 3438.98 27.773 3447.19 8.31679 3454.41C-10.7563 3461.56 -30.1371 3467.92 -49.5728 3473.91C-59.395 3476.93 -69.2374 3479.86 -79.0999 3482.7C-89.3506 3485.69 -99.7221 3488.19 -109.956 3491.24C-115.159 3492.78 -120.311 3494.47 -125.393 3496.38C-127.964 3497.33 -130.776 3498.98 -133.529 3499.12C-135.88 3499.25 -137.797 3498.96 -140.033 3499.81C-150.602 3503.79 -161.128 3507.89 -171.658 3511.96C-181.623 3515.8 -191.737 3519.34 -201.438 3523.83C-211.057 3528.29 -220.374 3533.37 -229.559 3538.67C-231.594 3539.73 -233.491 3541.04 -235.206 3542.56C-237.034 3544.41 -239.269 3545.81 -241.732 3546.63C-242.15 3546.77 -241.974 3547.43 -241.551 3547.29C-237.107 3545.9 -234.355 3542.23 -230.427 3539.96C-225.686 3537.21 -220.918 3534.53 -216.089 3531.95C-206.215 3526.66 -196.011 3522.01 -185.54 3518.03C-175.015 3514.02 -164.528 3509.93 -154.019 3505.88L-146.087 3502.84C-143.34 3501.8 -140.236 3500.09 -137.297 3499.82C-135.292 3499.62 -133.232 3500.2 -131.331 3499.44C-128.585 3498.34 -125.838 3497.24 -123.02 3496.23C-112.698 3492.5 -102.145 3489.87 -91.537 3487.01C-81.4236 3484.27 -71.3926 3481.18 -61.3561 3478.17C-41.5139 3472.23 -21.7596 3465.97 -2.25253 3458.99C16.892 3452.13 35.7894 3444.56 54.2253 3435.97C63.7472 3431.53 73.1409 3426.82 82.4065 3421.82C87.0393 3419.32 91.6281 3416.74 96.173 3414.09C98.277 3412.87 100.743 3411.77 102.65 3410.25C103.518 3409.56 104.232 3408.6 105.045 3407.87C106.269 3406.8 107.626 3405.9 109.083 3405.18C126.112 3395.87 141.378 3383.75 155.436 3370.4C162.709 3363.5 170.037 3356.36 176.706 3348.84C180.085 3345.02 182.919 3340.75 186.386 3337.01C189.573 3333.44 192.557 3329.7 195.324 3325.8C218.599 3294.27 234.393 3257.28 240.276 3218.45C240.961 3213.91 241.51 3209.35 241.924 3204.77C241.968 3204.32 241.282 3204.33 241.238 3204.77L241.254 3204.8Z" fill="url(#paint8_linear_182_1426)"/>
<path d="M635 3791.91V3630.89C623.305 3619.5 609.809 3610.11 595.057 3603.12C556.878 3585.06 512.431 3582.88 471.126 3591.67C429.821 3600.46 391.34 3619.66 355.935 3642.66C306.62 3674.68 260.981 3715.02 204.657 3731.9C177.096 3740.14 147.712 3742.5 121.371 3754.07C103.875 3761.76 87.4824 3775.28 79.072 3791.91H635Z" fill="url(#paint9_linear_182_1426)"/>
<path d="M-249.934 3512.18C-233.2 3510.6 -216.571 3508.06 -200.131 3504.55C-122.031 3487.93 -49.2819 3451.64 17.6883 3408.16C110.928 3347.61 197.213 3271.34 303.708 3239.43C355.813 3223.82 411.379 3219.39 461.166 3197.52L462.32 3197H-249.934V3512.18Z" fill="url(#paint10_linear_182_1426)"/>
<path d="M17.2161 3791.91H18.3917C12.9532 3725.33 -15.5686 3663.47 -63.3228 3615.71C-113.566 3565.45 -179.41 3536.49 -249.934 3533.29V3534.46C-108.737 3540.95 5.60854 3652.06 17.2161 3791.91Z" fill="#EA227A"/>
<path d="M-249.934 3459.96C-215.787 3462.85 -180.986 3460.23 -147.471 3453.1C-81.1819 3438.99 -19.4359 3408.18 37.4099 3371.28C116.554 3319.89 189.786 3255.15 280.175 3228.07C320.562 3215.98 363.384 3211.77 402.678 3197H-249.94L-249.934 3459.96Z" fill="url(#paint11_linear_182_1426)"/>
<path d="M387.022 3197.02C369.338 3276.88 297.984 3336.81 212.88 3336.81C127.777 3336.81 56.4335 3276.88 38.7392 3197.02H37.5527C55.2744 3277.52 127.156 3337.95 212.891 3337.95C298.627 3337.95 370.508 3277.52 388.208 3197.02H387.022Z" fill="#EA227A"/>
<path d="M429.678 3216.25C430.251 3216.23 430.815 3216.39 431.298 3216.7C431.781 3217.01 432.162 3217.45 432.39 3217.98C432.618 3218.5 432.685 3219.09 432.58 3219.65C432.476 3220.21 432.206 3220.73 431.805 3221.14C431.404 3221.55 430.889 3221.83 430.328 3221.95C429.767 3222.06 429.184 3222.01 428.654 3221.79C428.124 3221.57 427.671 3221.2 427.354 3220.72C427.036 3220.24 426.868 3219.68 426.871 3219.11C426.866 3218.74 426.935 3218.37 427.074 3218.02C427.212 3217.68 427.418 3217.36 427.679 3217.09C427.94 3216.83 428.251 3216.62 428.594 3216.47C428.937 3216.33 429.306 3216.25 429.678 3216.25Z" fill="#00255B"/>
<path d="M420.839 3197.02C420.733 3197.31 420.678 3197.63 420.674 3197.95C420.67 3198.32 420.739 3198.69 420.878 3199.03C421.016 3199.38 421.221 3199.69 421.481 3199.96C421.742 3200.23 422.052 3200.44 422.394 3200.58C422.736 3200.73 423.104 3200.81 423.476 3200.81C423.848 3200.82 424.218 3200.75 424.563 3200.61C424.909 3200.47 425.224 3200.27 425.49 3200.01C425.756 3199.75 425.969 3199.44 426.115 3199.09C426.262 3198.75 426.339 3198.38 426.344 3198.01C426.346 3197.67 426.29 3197.34 426.179 3197.02H420.839Z" fill="#00255B"/>
<path d="M427.975 3225.75C428.517 3225.74 429.05 3225.89 429.506 3226.19C429.962 3226.48 430.322 3226.9 430.539 3227.4C430.757 3227.89 430.823 3228.44 430.728 3228.98C430.634 3229.51 430.384 3230.01 430.01 3230.4C429.635 3230.79 429.153 3231.06 428.624 3231.18C428.096 3231.3 427.543 3231.26 427.038 3231.06C426.532 3230.87 426.095 3230.53 425.782 3230.09C425.468 3229.64 425.293 3229.12 425.278 3228.58C425.274 3227.85 425.554 3227.15 426.057 3226.62C426.56 3226.09 427.248 3225.78 427.975 3225.75Z" fill="#00255B"/>
<path d="M421.723 3210.41C421.182 3210.4 420.655 3210.24 420.208 3209.93C419.761 3209.62 419.415 3209.19 419.213 3208.69C419.011 3208.19 418.962 3207.64 419.073 3207.11C419.183 3206.58 419.448 3206.09 419.833 3205.71C420.219 3205.33 420.708 3205.07 421.24 3204.97C421.772 3204.87 422.322 3204.92 422.822 3205.13C423.321 3205.34 423.748 3205.69 424.048 3206.14C424.348 3206.59 424.508 3207.12 424.509 3207.67C424.491 3208.39 424.191 3209.09 423.672 3209.6C423.152 3210.11 422.453 3210.41 421.723 3210.41Z" fill="#00255B"/>
<path d="M423.822 3238.23C423.817 3237.73 423.958 3237.25 424.228 3236.84C424.498 3236.43 424.884 3236.11 425.337 3235.93C425.79 3235.74 426.288 3235.69 426.769 3235.79C427.25 3235.88 427.691 3236.12 428.035 3236.47C428.38 3236.82 428.612 3237.26 428.702 3237.75C428.793 3238.23 428.737 3238.73 428.542 3239.18C428.347 3239.63 428.022 3240.01 427.609 3240.27C427.196 3240.54 426.713 3240.67 426.223 3240.66C425.906 3240.66 425.592 3240.59 425.299 3240.47C425.007 3240.35 424.742 3240.17 424.519 3239.94C424.296 3239.71 424.12 3239.45 424 3239.15C423.881 3238.86 423.82 3238.54 423.822 3238.23Z" fill="#00255B"/>
<path d="M419.966 3214.91C420.455 3214.89 420.937 3215.02 421.352 3215.28C421.768 3215.54 422.097 3215.92 422.3 3216.36C422.502 3216.81 422.569 3217.3 422.491 3217.78C422.413 3218.27 422.194 3218.72 421.862 3219.08C421.529 3219.44 421.098 3219.69 420.622 3219.8C420.147 3219.92 419.648 3219.89 419.188 3219.72C418.729 3219.55 418.329 3219.25 418.039 3218.86C417.749 3218.47 417.582 3217.99 417.559 3217.51C417.535 3217.17 417.58 3216.84 417.689 3216.53C417.799 3216.21 417.972 3215.93 418.198 3215.68C418.424 3215.44 418.697 3215.24 419.001 3215.11C419.305 3214.98 419.633 3214.91 419.966 3214.91Z" fill="#00255B"/>
<path d="M411.501 3197.02C411.659 3197.5 411.967 3197.92 412.379 3198.22C412.792 3198.52 413.288 3198.68 413.797 3198.68C414.306 3198.68 414.802 3198.52 415.214 3198.22C415.626 3197.92 415.934 3197.5 416.093 3197.02H411.501Z" fill="#00255B"/>
<path d="M412.017 3208.2C411.706 3208.19 411.399 3208.13 411.116 3208C410.833 3207.87 410.581 3207.68 410.374 3207.45C410.167 3207.22 410.011 3206.94 409.915 3206.65C409.82 3206.35 409.787 3206.04 409.819 3205.73C409.831 3205.44 409.903 3205.15 410.03 3204.89C410.157 3204.63 410.336 3204.4 410.557 3204.2C410.778 3204.01 411.036 3203.87 411.315 3203.79C411.593 3203.7 411.886 3203.67 412.176 3203.7C412.772 3203.73 413.334 3203.99 413.739 3204.42C414.144 3204.86 414.358 3205.44 414.335 3206.04C414.312 3206.63 414.053 3207.2 413.615 3207.6C413.177 3208.01 412.596 3208.22 412 3208.2H412.017Z" fill="#00255B"/>
<path d="M418.367 3224.46C418.98 3224.49 419.557 3224.76 419.975 3225.2C420.393 3225.65 420.618 3226.25 420.603 3226.86C420.591 3227.17 420.517 3227.47 420.386 3227.75C420.256 3228.02 420.072 3228.27 419.844 3228.48C419.616 3228.68 419.35 3228.84 419.06 3228.94C418.771 3229.04 418.464 3229.08 418.158 3229.06C417.866 3229.05 417.578 3228.99 417.312 3228.87C417.045 3228.75 416.805 3228.57 416.606 3228.36C416.407 3228.15 416.253 3227.89 416.152 3227.62C416.052 3227.34 416.008 3227.05 416.022 3226.76C416.02 3226.45 416.08 3226.15 416.198 3225.87C416.316 3225.58 416.489 3225.33 416.708 3225.11C416.927 3224.9 417.186 3224.73 417.471 3224.62C417.756 3224.5 418.061 3224.45 418.367 3224.46Z" fill="#00255B"/>
<path d="M426.701 3247.89C426.618 3249.29 425.602 3250.19 424.366 3250.04C424.075 3250.04 423.788 3249.98 423.525 3249.85C423.262 3249.73 423.029 3249.55 422.845 3249.32C422.66 3249.1 422.527 3248.84 422.456 3248.55C422.384 3248.27 422.376 3247.98 422.432 3247.69C422.435 3247.42 422.495 3247.15 422.611 3246.9C422.726 3246.65 422.893 3246.42 423.101 3246.24C423.309 3246.06 423.552 3245.93 423.816 3245.85C424.08 3245.77 424.357 3245.75 424.63 3245.79C424.908 3245.77 425.186 3245.82 425.445 3245.92C425.704 3246.02 425.939 3246.18 426.135 3246.38C426.33 3246.57 426.482 3246.81 426.579 3247.07C426.677 3247.33 426.718 3247.61 426.701 3247.89Z" fill="#00255B"/>
<path d="M414.302 3236.03C415.071 3235.52 415.801 3234.67 416.625 3234.57C417.774 3234.41 418.565 3235.32 418.537 3236.52C418.51 3237.72 417.686 3238.6 416.543 3238.4C415.719 3238.25 415.032 3237.38 414.285 3236.83L414.302 3236.03Z" fill="#00255B"/>
<path d="M408.012 3215.27C408.771 3214.72 409.452 3213.93 410.298 3213.69C411.319 3213.4 412.457 3214.64 412.341 3215.73C412.22 3216.92 411.457 3217.81 410.309 3217.6C409.479 3217.46 408.776 3216.6 408.018 3216.06L408.012 3215.27Z" fill="#00255B"/>
<path d="M420.757 3257.14C421.438 3256.7 422.081 3256.04 422.811 3255.91C423.954 3255.74 424.619 3256.54 424.575 3257.71C424.531 3258.88 423.767 3259.6 422.658 3259.36C421.943 3259.2 421.367 3258.44 420.724 3257.95L420.757 3257.14Z" fill="#00255B"/>
<path d="M406.628 3224.91C407.315 3224.49 408.034 3223.71 408.682 3223.76C409.331 3223.81 410.27 3224.86 410.193 3225.32C410.077 3225.71 409.866 3226.06 409.578 3226.35C409.29 3226.64 408.935 3226.85 408.545 3226.97C407.952 3227.04 407.238 3226.16 406.578 3225.7L406.628 3224.91Z" fill="#00255B"/>
<path d="M402.288 3201.81C403.101 3202.91 403.936 3203.57 403.908 3204.15C403.881 3204.74 402.936 3205.3 402.398 3205.87C401.848 3205.32 400.881 3204.85 400.794 3204.23C400.706 3203.6 401.53 3202.96 402.288 3201.81Z" fill="#00255B"/>
<path d="M414.554 3248.06C414.109 3247.44 413.263 3246.78 413.324 3246.21C413.436 3245.85 413.636 3245.52 413.907 3245.25C414.179 3244.98 414.512 3244.78 414.879 3244.67C415.302 3244.59 416.312 3245.54 416.356 3246.08C416.4 3246.63 415.664 3247.37 415.258 3248.03L414.554 3248.06Z" fill="#00255B"/>
<path d="M426.975 3278.78C428.008 3278.11 428.623 3277.41 429.09 3277.49C429.4 3277.6 429.677 3277.79 429.897 3278.04C430.117 3278.28 430.274 3278.58 430.354 3278.9C430.409 3279.25 429.552 3280.08 429.09 3280.09C428.629 3280.11 427.997 3279.43 426.975 3278.78Z" fill="#00255B"/>
<path d="M398.728 3214.02C399.613 3213.36 400.135 3212.68 400.58 3212.72C400.873 3212.81 401.139 3212.97 401.356 3213.18C401.572 3213.4 401.732 3213.66 401.821 3213.96C401.893 3214.28 401.145 3215.1 400.722 3215.13C400.223 3215.15 399.684 3214.6 398.728 3214.02Z" fill="#00255B"/>
<path d="M408.749 3234.62C407.87 3235.29 407.397 3235.92 406.892 3235.94C406.474 3235.94 405.639 3235.23 405.672 3234.91C405.729 3234.61 405.859 3234.32 406.05 3234.08C406.242 3233.84 406.489 3233.65 406.771 3233.53C407.199 3233.44 407.793 3234.06 408.749 3234.62Z" fill="#00255B"/>
<path d="M419.191 3267.35C420.097 3266.72 420.641 3266.06 421.086 3266.12C421.376 3266.21 421.637 3266.38 421.846 3266.61C422.055 3266.83 422.205 3267.1 422.284 3267.4C422.344 3267.72 421.564 3268.5 421.141 3268.52C420.718 3268.55 420.119 3267.97 419.191 3267.35Z" fill="#00255B"/>
<path d="M411.577 3255.97C412.297 3255.42 412.72 3254.87 413.082 3254.92C413.32 3255 413.535 3255.13 413.709 3255.31C413.883 3255.49 414.011 3255.71 414.082 3255.95C414.143 3256.19 413.533 3256.86 413.198 3256.87C412.78 3256.91 412.346 3256.43 411.577 3255.97Z" fill="#00255B"/>
<path d="M132.528 3647.43C131.054 3647.43 129.859 3648.63 129.859 3650.1C129.859 3651.58 131.054 3652.77 132.528 3652.77C134.003 3652.77 135.198 3651.58 135.198 3650.1C135.198 3648.63 134.003 3647.43 132.528 3647.43Z" fill="white"/>
<path d="M79.275 3239.2C77.8005 3239.2 76.6052 3240.39 76.6052 3241.87C76.6052 3243.34 77.8005 3244.54 79.275 3244.54C80.7495 3244.54 81.9448 3243.34 81.9448 3241.87C81.9448 3240.39 80.7495 3239.2 79.275 3239.2Z" fill="white"/>
<path d="M354.539 3428.84C353.065 3428.84 351.87 3430.03 351.87 3431.51C351.87 3432.98 353.065 3434.18 354.539 3434.18C356.014 3434.18 357.209 3432.98 357.209 3431.51C357.209 3430.03 356.014 3428.84 354.539 3428.84Z" fill="#EA227A"/>
<path d="M308.202 3274.65C308.202 3273.93 308.415 3273.23 308.814 3272.63C309.213 3272.03 309.78 3271.57 310.444 3271.29C311.107 3271.02 311.837 3270.95 312.542 3271.09C313.246 3271.23 313.893 3271.57 314.401 3272.08C314.909 3272.59 315.254 3273.24 315.395 3273.94C315.535 3274.64 315.463 3275.38 315.188 3276.04C314.913 3276.7 314.448 3277.27 313.851 3277.67C313.253 3278.07 312.551 3278.28 311.833 3278.28C310.87 3278.28 309.947 3277.9 309.266 3277.22C308.585 3276.54 308.202 3275.61 308.202 3274.65Z" fill="white"/>
<path d="M38.9151 3753.11H43.8207V3736.57H38.9151V3753.11Z" fill="#EA227A"/>
<path d="M33.092 3742.39V3747.3H49.6327V3742.39H33.092Z" fill="#EA227A"/>
<path d="M369.064 3601.12H372.245V3590.4H369.064V3601.12Z" fill="#EA227A"/>
<path d="M365.295 3594.17V3597.35H376.019V3594.17H365.295Z" fill="#EA227A"/>
<path d="M7.66286 3276.38H10.8435V3265.65H7.66286V3276.38Z" fill="white"/>
<path d="M3.88892 3269.43V3272.61H14.6121V3269.43H3.88892Z" fill="white"/>
<path d="M308.202 3753.11L352.089 3709.22" stroke="#EA227A" stroke-miterlimit="10"/>
<path d="M-1.07149 3375.4L43.8207 3330.51" stroke="#EA227A" stroke-miterlimit="10"/>
<path d="M361.444 3333.98L405.04 3290.37" stroke="white" stroke-miterlimit="10"/>
<path d="M14.6176 3690.55L58.2134 3646.95" stroke="white" stroke-miterlimit="10"/>
<path d="M497.703 3320.92C451.675 3320.92 414.362 3358.24 414.362 3404.28C414.362 3450.32 451.675 3487.64 497.703 3487.64C543.731 3487.64 581.043 3450.32 581.043 3404.28C581.043 3358.24 543.731 3320.92 497.703 3320.92Z" stroke="#EA227A" stroke-miterlimit="10"/>
</g>
<path d="M1175 1616V-222H455H-265V1616H1175Z" fill="url(#paint12_linear_182_1426)"/>
<path d="M-42.0001 2443L-42.0002 3847L369 3847L780 3847L780 2443L-42.0001 2443Z" fill="url(#paint13_linear_182_1426)"/>
<defs>
<linearGradient id="paint0_linear_182_1426" x1="438.383" y1="-597.704" x2="-138.585" y2="417.123" gradientUnits="userSpaceOnUse">
<stop stop-opacity="0"/>
<stop offset="0.19" stop-color="#000204" stop-opacity="0.03"/>
<stop offset="0.36" stop-color="#00060F" stop-opacity="0.11"/>
<stop offset="0.53" stop-color="#000F21" stop-opacity="0.25"/>
<stop offset="0.69" stop-color="#001A3B" stop-opacity="0.44"/>
<stop offset="0.84" stop-color="#00295C" stop-opacity="0.69"/>
<stop offset="0.99" stop-color="#003B84" stop-opacity="0.99"/>
<stop offset="1" stop-color="#003C86"/>
</linearGradient>
<linearGradient id="paint1_linear_182_1426" x1="217.892" y1="-91.117" x2="-64.9622" y2="406.394" gradientUnits="userSpaceOnUse">
<stop stop-opacity="0"/>
<stop offset="0.02" stop-color="#000205" stop-opacity="0.04"/>
<stop offset="0.16" stop-color="#00142D" stop-opacity="0.33"/>
<stop offset="0.32" stop-color="#00224D" stop-opacity="0.57"/>
<stop offset="0.47" stop-color="#002E66" stop-opacity="0.76"/>
<stop offset="0.63" stop-color="#003678" stop-opacity="0.9"/>
<stop offset="0.8" stop-color="#003A83" stop-opacity="0.97"/>
<stop offset="1" stop-color="#003C86"/>
</linearGradient>
<linearGradient id="paint2_linear_182_1426" x1="584.66" y1="195.482" x2="292.404" y2="709.528" gradientUnits="userSpaceOnUse">
<stop stop-opacity="0"/>
<stop offset="0.02" stop-color="#000205" stop-opacity="0.04"/>
<stop offset="0.16" stop-color="#00142D" stop-opacity="0.33"/>
<stop offset="0.32" stop-color="#00224D" stop-opacity="0.57"/>
<stop offset="0.47" stop-color="#002E66" stop-opacity="0.76"/>
<stop offset="0.63" stop-color="#003678" stop-opacity="0.9"/>
<stop offset="0.8" stop-color="#003A83" stop-opacity="0.97"/>
<stop offset="1" stop-color="#003C86"/>
</linearGradient>
<linearGradient id="paint3_linear_182_1426" x1="292.021" y1="-417.123" x2="-114.191" y2="297.361" gradientUnits="userSpaceOnUse">
<stop stop-opacity="0"/>
<stop offset="0.19" stop-color="#000204" stop-opacity="0.03"/>
<stop offset="0.36" stop-color="#00060F" stop-opacity="0.11"/>
<stop offset="0.53" stop-color="#000F21" stop-opacity="0.25"/>
<stop offset="0.69" stop-color="#001A3B" stop-opacity="0.44"/>
<stop offset="0.84" stop-color="#00295C" stop-opacity="0.69"/>
<stop offset="0.99" stop-color="#003B84" stop-opacity="0.99"/>
<stop offset="1" stop-color="#003C86"/>
</linearGradient>
<linearGradient id="paint4_linear_182_1426" x1="-126.921" y1="1460.52" x2="641.075" y2="109.686" gradientUnits="userSpaceOnUse">
<stop stop-opacity="0"/>
<stop offset="0.19" stop-color="#000204" stop-opacity="0.03"/>
<stop offset="0.36" stop-color="#00060F" stop-opacity="0.11"/>
<stop offset="0.53" stop-color="#000F21" stop-opacity="0.25"/>
<stop offset="0.69" stop-color="#001A3B" stop-opacity="0.44"/>
<stop offset="0.84" stop-color="#00295C" stop-opacity="0.69"/>
<stop offset="0.99" stop-color="#003B84" stop-opacity="0.99"/>
<stop offset="1" stop-color="#003C86"/>
</linearGradient>
<linearGradient id="paint5_linear_182_1426" x1="-36.8587" y1="1360.03" x2="614.99" y2="213.486" gradientUnits="userSpaceOnUse">
<stop stop-opacity="0"/>
<stop offset="0.19" stop-color="#000204" stop-opacity="0.03"/>
<stop offset="0.36" stop-color="#00060F" stop-opacity="0.11"/>
<stop offset="0.53" stop-color="#000F21" stop-opacity="0.25"/>
<stop offset="0.69" stop-color="#001A3B" stop-opacity="0.44"/>
<stop offset="0.84" stop-color="#00295C" stop-opacity="0.69"/>
<stop offset="0.99" stop-color="#003B84" stop-opacity="0.99"/>
<stop offset="1" stop-color="#003C86"/>
</linearGradient>
<linearGradient id="paint6_linear_182_1426" x1="8.98698" y1="4334.29" x2="532.738" y2="3413.74" gradientUnits="userSpaceOnUse">
<stop stop-opacity="0"/>
<stop offset="0.19" stop-color="#000204" stop-opacity="0.03"/>
<stop offset="0.36" stop-color="#00060F" stop-opacity="0.11"/>
<stop offset="0.53" stop-color="#000F21" stop-opacity="0.25"/>
<stop offset="0.69" stop-color="#001A3B" stop-opacity="0.44"/>
<stop offset="0.84" stop-color="#00295C" stop-opacity="0.69"/>
<stop offset="0.99" stop-color="#003B84" stop-opacity="0.99"/>
<stop offset="1" stop-color="#003C86"/>
</linearGradient>
<linearGradient id="paint7_linear_182_1426" x1="208.919" y1="3874.6" x2="465.685" y2="3423.31" gradientUnits="userSpaceOnUse">
<stop stop-opacity="0"/>
<stop offset="0.02" stop-color="#000205" stop-opacity="0.04"/>
<stop offset="0.16" stop-color="#00142D" stop-opacity="0.33"/>
<stop offset="0.32" stop-color="#00224D" stop-opacity="0.57"/>
<stop offset="0.47" stop-color="#002E66" stop-opacity="0.76"/>
<stop offset="0.63" stop-color="#003678" stop-opacity="0.9"/>
<stop offset="0.8" stop-color="#003A83" stop-opacity="0.97"/>
<stop offset="1" stop-color="#003C86"/>
</linearGradient>
<linearGradient id="paint8_linear_182_1426" x1="-123.651" y1="3614.53" x2="141.648" y2="3148.24" gradientUnits="userSpaceOnUse">
<stop stop-opacity="0"/>
<stop offset="0.02" stop-color="#000205" stop-opacity="0.04"/>
<stop offset="0.16" stop-color="#00142D" stop-opacity="0.33"/>
<stop offset="0.32" stop-color="#00224D" stop-opacity="0.57"/>
<stop offset="0.47" stop-color="#002E66" stop-opacity="0.76"/>
<stop offset="0.63" stop-color="#003678" stop-opacity="0.9"/>
<stop offset="0.8" stop-color="#003A83" stop-opacity="0.97"/>
<stop offset="1" stop-color="#003C86"/>
</linearGradient>
<linearGradient id="paint9_linear_182_1426" x1="141.702" y1="4170.42" x2="510.447" y2="3522.31" gradientUnits="userSpaceOnUse">
<stop stop-opacity="0"/>
<stop offset="0.19" stop-color="#000204" stop-opacity="0.03"/>
<stop offset="0.36" stop-color="#00060F" stop-opacity="0.11"/>
<stop offset="0.53" stop-color="#000F21" stop-opacity="0.25"/>
<stop offset="0.69" stop-color="#001A3B" stop-opacity="0.44"/>
<stop offset="0.84" stop-color="#00295C" stop-opacity="0.69"/>
<stop offset="0.99" stop-color="#003B84" stop-opacity="0.99"/>
<stop offset="1" stop-color="#003C86"/>
</linearGradient>
<linearGradient id="paint10_linear_182_1426" x1="521.583" y1="2466.6" x2="-175.578" y2="3691.95" gradientUnits="userSpaceOnUse">
<stop stop-opacity="0"/>
<stop offset="0.19" stop-color="#000204" stop-opacity="0.03"/>
<stop offset="0.36" stop-color="#00060F" stop-opacity="0.11"/>
<stop offset="0.53" stop-color="#000F21" stop-opacity="0.25"/>
<stop offset="0.69" stop-color="#001A3B" stop-opacity="0.44"/>
<stop offset="0.84" stop-color="#00295C" stop-opacity="0.69"/>
<stop offset="0.99" stop-color="#003B84" stop-opacity="0.99"/>
<stop offset="1" stop-color="#003C86"/>
</linearGradient>
<linearGradient id="paint11_linear_182_1426" x1="439.918" y1="2557.79" x2="-151.808" y2="3597.82" gradientUnits="userSpaceOnUse">
<stop stop-opacity="0"/>
<stop offset="0.19" stop-color="#000204" stop-opacity="0.03"/>
<stop offset="0.36" stop-color="#00060F" stop-opacity="0.11"/>
<stop offset="0.53" stop-color="#000F21" stop-opacity="0.25"/>
<stop offset="0.69" stop-color="#001A3B" stop-opacity="0.44"/>
<stop offset="0.84" stop-color="#00295C" stop-opacity="0.69"/>
<stop offset="0.99" stop-color="#003B84" stop-opacity="0.99"/>
<stop offset="1" stop-color="#003C86"/>
</linearGradient>
<linearGradient id="paint12_linear_182_1426" x1="455" y1="-222" x2="455" y2="1024.68" gradientUnits="userSpaceOnUse">
<stop offset="0.522659" stop-color="#001137" stop-opacity="0"/>
<stop offset="0.720544" stop-color="#001137"/>
</linearGradient>
<linearGradient id="paint13_linear_182_1426" x1="369" y1="3847" x2="369" y2="2894.7" gradientUnits="userSpaceOnUse">
<stop offset="0.522659" stop-color="#001137" stop-opacity="0"/>
<stop offset="0.720544" stop-color="#001137"/>
</linearGradient>
</defs>
</svg>
