<svg width="428" height="3076" viewBox="0 0 428 3076" fill="none" xmlns="http://www.w3.org/2000/svg">
<path d="M478 3076V-197H210H-58V3076H478Z" fill="#001137"/>
<g style="mix-blend-mode:lighten" opacity="0.6">
<path d="M-252 0.00617981V280.526C-213.227 286.067 -173.073 283.947 -134.663 275.779C-69.9489 262.01 -9.6691 231.971 45.8126 195.973C123.068 145.843 194.549 82.7005 282.782 56.2822C325.959 43.3606 372.002 39.6912 413.235 21.5805C425.874 16.0195 437.696 8.76113 448.373 0.00617981H-252Z" fill="url(#paint0_linear_308_42)"/>
<path d="M-242.798 306.012C-219.019 312.267 -194.858 316.366 -170.213 316.851C-146.586 317.317 -123.007 314.477 -100.034 309.1C-76.4737 303.584 -53.9915 295.173 -31.7152 285.921C-11.5117 277.563 8.14759 267.947 27.147 257.129C65.6473 235.149 101.191 208.259 133.561 178.02C137.704 174.148 141.796 170.227 145.835 166.255C150.384 161.78 155.34 157.905 160.32 153.92L167.051 148.537C169.11 146.896 170.225 145.249 171.782 143.154C173.787 140.448 176.944 138.347 179.5 136.161L187.025 129.748C205.967 113.626 225.069 97.6968 244.33 81.9617C254.023 74.0598 264.51 67.3326 275.282 60.9747C286.053 54.6169 296.776 48.3499 307.736 42.4946C329.679 30.7538 353.615 23.4392 377.309 16.046C383.27 14.1931 389.232 12.3403 395.175 10.4269C395.635 10.2815 395.441 9.54887 394.975 9.70025C371.311 17.3054 347.284 23.96 324.354 33.6542C313.643 38.1834 303.447 43.7904 293.457 49.7062C283.006 55.8885 272.331 61.6166 262.111 68.1863C251.891 74.7561 242.779 82.2099 233.461 89.8696C224.144 97.5293 214.717 105.365 205.4 113.188C195.755 121.302 186.142 129.458 176.562 137.656C174.672 139.279 172.594 140.757 171.11 142.773C170.207 143.984 169.504 145.389 168.42 146.466C167.195 147.561 165.91 148.588 164.573 149.542C159.617 153.503 154.51 157.317 149.663 161.459C145.368 165.159 141.485 169.446 137.377 173.357C133.27 177.269 129.15 181.083 124.958 184.862C116.65 192.358 108.142 199.624 99.4343 206.66C82.1028 220.68 63.9459 233.649 45.0613 245.497C26.3188 257.241 6.84182 267.77 -13.2496 277.02C-34.7928 286.932 -56.9176 295.997 -79.6483 302.833C-102.833 309.802 -126.77 314.441 -150.972 315.743C-175.725 316.992 -200.533 314.928 -224.738 309.603C-230.729 308.307 -236.679 306.848 -242.604 305.285C-242.7 305.258 -242.803 305.27 -242.891 305.319C-242.978 305.368 -243.043 305.449 -243.07 305.546C-243.097 305.642 -243.085 305.745 -243.037 305.833C-242.988 305.92 -242.906 305.985 -242.81 306.012H-242.798Z" fill="url(#paint1_linear_308_42)"/>
<path d="M182.233 647.016C186.298 603.729 201.353 561.948 225.368 525.721C231.577 516.354 238.502 507.737 245.663 499.115C249.165 494.876 252.327 490.468 256.119 486.502C259.912 482.536 263.777 478.491 267.685 474.561C283.115 459.048 299.6 444.431 318.199 432.781C320.252 431.498 322.33 430.244 324.426 429.039C326.777 427.683 329.515 426.617 331.696 425.031C332.648 424.353 333.447 423.257 334.295 422.439C335.429 421.39 336.679 420.474 338.021 419.708C340.667 418.13 343.328 416.574 346.006 415.04C355.861 409.389 365.885 404.05 376.079 399.024C396.624 388.94 417.665 379.898 439.122 371.934C460.156 364.062 481.53 357.044 502.964 350.45C513.796 347.124 524.65 343.895 535.527 340.762C546.832 337.468 558.27 334.707 569.556 331.347C575.293 329.651 580.976 327.786 586.58 325.691C589.415 324.637 592.517 322.821 595.552 322.664C598.145 322.518 600.26 322.839 602.725 321.907C614.381 317.523 625.989 313.006 637.603 308.519C648.593 304.28 659.746 300.387 670.445 295.434C681.053 290.517 691.328 284.922 701.457 279.085C703.701 277.915 705.793 276.473 707.685 274.792C709.7 272.755 712.165 271.218 714.882 270.305C715.342 270.16 715.149 269.433 714.682 269.579C709.781 271.117 706.746 275.161 702.414 277.662C697.186 280.69 691.927 283.645 686.602 286.49C675.713 292.32 664.46 297.443 652.912 301.828C641.304 306.242 629.739 310.759 618.15 315.222L609.402 318.57C606.372 319.709 602.949 321.598 599.708 321.901C597.497 322.112 595.225 321.477 593.129 322.318C590.1 323.529 587.071 324.74 583.963 325.855C572.579 329.96 560.941 332.86 549.243 336.009C538.09 339.036 527.027 342.439 515.959 345.752C494.076 352.303 472.291 359.194 450.778 366.89C429.665 374.447 408.824 382.791 388.493 392.255C377.992 397.147 367.632 402.346 357.414 407.853C352.305 410.61 347.244 413.447 342.232 416.366C339.911 417.716 337.191 418.933 335.089 420.605C334.132 421.367 333.344 422.421 332.448 423.226C331.098 424.402 329.601 425.397 327.995 426.187C309.214 436.445 292.378 449.802 276.875 464.516C268.854 472.121 260.772 479.993 253.418 488.282C249.692 492.491 246.566 497.195 242.743 501.319C239.228 505.248 235.937 509.372 232.886 513.671C207.217 548.415 189.8 589.178 183.311 631.976C182.556 636.977 181.95 642.001 181.494 647.047C181.445 647.537 182.203 647.531 182.251 647.047L182.233 647.016Z" fill="url(#paint2_linear_308_42)"/>
<path d="M-252 0.00617981V177.451C-239.102 190.007 -224.219 200.349 -207.95 208.059C-165.845 227.962 -116.828 230.366 -71.2757 220.678C-25.7235 210.99 16.7147 189.833 55.7602 164.487C110.145 129.198 160.477 84.7411 222.593 66.1398C252.987 57.0572 285.393 54.4596 314.442 41.7076C333.738 33.2304 351.816 18.3289 361.091 0.00617981H-252Z" fill="url(#paint3_linear_308_42)"/>
<path d="M723.927 308.277C705.472 310.013 687.133 312.82 669.003 316.681C582.872 334.998 502.642 374.992 428.786 422.912C325.959 489.633 230.802 573.689 113.356 608.851C55.8933 626.054 -5.38609 630.934 -60.2922 655.039L-61.5645 655.609H723.927V308.277Z" fill="url(#paint4_linear_308_42)"/>
<path d="M723.927 365.818C686.269 362.633 647.89 365.527 610.928 373.387C537.823 388.936 469.728 422.881 407.037 463.553C319.756 520.186 238.993 591.528 139.31 621.373C94.7695 634.694 47.5453 639.326 4.21045 655.609H723.933L723.927 365.818Z" fill="url(#paint5_linear_308_42)"/>
<path d="M21.4766 655.59C40.9781 567.574 119.669 501.537 213.524 501.537C307.379 501.537 386.057 567.574 405.571 655.59H406.88C387.336 566.877 308.063 500.277 213.512 500.277C118.96 500.277 39.6877 566.877 20.168 655.59H21.4766Z" fill="#EA227A"/>
<path d="M4.64045 650.304C3.74382 649.093 2.82298 648.367 2.85327 647.725C2.88356 647.083 3.92558 646.459 4.51929 645.83C5.12512 646.435 6.19136 646.962 6.2883 647.646C6.38523 648.33 5.47649 649.045 4.64045 650.304Z" fill="#00255B"/>
<path d="M8.56622 636.85C7.59084 637.576 7.01531 638.333 6.52459 638.285C6.20157 638.188 5.90747 638.013 5.66855 637.776C5.42964 637.538 5.25334 637.245 5.15541 636.922C5.07665 636.571 5.90058 635.663 6.36706 635.633C6.91837 635.609 7.51208 636.214 8.56622 636.85Z" fill="#00255B"/>
<path d="M-2.48389 614.149C-1.51456 613.417 -0.993549 612.72 -0.436188 612.696C0.0242409 612.696 0.945099 613.477 0.908749 613.835C0.84618 614.167 0.702986 614.478 0.491725 614.742C0.280465 615.006 0.00759807 615.214 -0.302905 615.348C-0.77545 615.451 -1.42975 614.767 -2.48389 614.149Z" fill="#00255B"/>
<path d="M302.138 159.225C303.764 159.225 305.082 157.907 305.082 156.282C305.082 154.657 303.764 153.339 302.138 153.339C300.512 153.339 299.194 154.657 299.194 156.282C299.194 157.907 300.512 159.225 302.138 159.225Z" fill="white"/>
<path d="M360.867 609.105C362.493 609.105 363.812 607.788 363.812 606.163C363.812 604.537 362.493 603.22 360.867 603.22C359.241 603.22 357.923 604.537 357.923 606.163C357.923 607.788 359.241 609.105 360.867 609.105Z" fill="white"/>
<path d="M57.299 400.12C58.9252 400.12 60.2434 398.803 60.2434 397.177C60.2434 395.552 58.9252 394.235 57.299 394.235C55.6729 394.235 54.3547 395.552 54.3547 397.177C54.3547 398.803 55.6729 400.12 57.299 400.12Z" fill="#EA227A"/>
<path d="M108.401 570.038C108.401 570.83 108.166 571.603 107.726 572.262C107.286 572.92 106.66 573.433 105.929 573.736C105.197 574.039 104.392 574.118 103.615 573.964C102.838 573.809 102.125 573.428 101.565 572.868C101.004 572.308 100.623 571.595 100.469 570.819C100.314 570.042 100.393 569.238 100.696 568.506C101 567.775 101.513 567.15 102.171 566.71C102.83 566.27 103.604 566.036 104.396 566.036C105.458 566.036 106.477 566.457 107.228 567.208C107.979 567.958 108.401 568.977 108.401 570.038Z" fill="white"/>
<path d="M405.377 42.761H399.967V60.9929H405.377V42.761Z" fill="#EA227A"/>
<path d="M411.799 54.5745V49.1673H393.558V54.5745H411.799Z" fill="#EA227A"/>
<path d="M41.2809 210.257H37.7732V222.076H41.2809V210.257Z" fill="#EA227A"/>
<path d="M45.437 217.917V214.411H33.6113V217.917H45.437Z" fill="#EA227A"/>
<path d="M449.475 459.006L399.967 508.482" stroke="#EA227A" stroke-miterlimit="10"/>
<path d="M49.6839 504.655L1.60547 552.708" stroke="white" stroke-miterlimit="10"/>
<path d="M432.173 111.704L384.094 159.757" stroke="white" stroke-miterlimit="10"/>
</g>
<g style="mix-blend-mode:lighten" opacity="0.6">
<path d="M635 3075.91V2821.36C599.842 2816.33 563.432 2818.26 528.604 2825.67C469.923 2838.16 415.263 2865.42 364.955 2898.09C294.903 2943.58 230.086 3000.87 150.08 3024.85C110.928 3036.57 69.1783 3039.9 31.7901 3056.33C20.3289 3061.38 9.60945 3067.97 -0.0716975 3075.91H635Z" fill="url(#paint6_linear_308_42)"/>
<path d="M626.655 2798.23C605.093 2792.56 583.186 2788.84 560.839 2788.4C539.414 2787.98 518.034 2790.55 497.203 2795.43C475.839 2800.44 455.453 2808.07 435.254 2816.46C416.934 2824.05 399.107 2832.78 381.88 2842.59C346.969 2862.54 314.739 2886.94 285.388 2914.38C281.63 2917.89 277.92 2921.45 274.258 2925.05C270.133 2929.11 265.639 2932.63 261.123 2936.25L255.02 2941.13C253.152 2942.62 252.142 2944.11 250.73 2946.01C248.911 2948.47 246.049 2950.38 243.731 2952.36L236.908 2958.18C219.732 2972.81 202.412 2987.26 184.946 3001.54C176.157 3008.71 166.648 3014.82 156.88 3020.59C147.113 3026.36 137.39 3032.04 127.452 3037.36C107.555 3048.01 85.8505 3054.65 64.3657 3061.36C58.9602 3063.04 53.5547 3064.72 48.1656 3066.46C47.7481 3066.59 47.9239 3067.25 48.3469 3067.11C69.8042 3060.21 91.5911 3054.18 112.384 3045.38C122.096 3041.27 131.341 3036.18 140.4 3030.81C149.876 3025.2 159.556 3020 168.823 3014.04C178.09 3008.08 186.352 3001.32 194.801 2994.37C203.25 2987.42 211.798 2980.31 220.247 2973.21C228.992 2965.84 237.709 2958.44 246.395 2951C248.109 2949.53 249.994 2948.19 251.34 2946.36C252.158 2945.26 252.795 2943.99 253.779 2943.01C254.89 2942.02 256.054 2941.08 257.267 2940.22C261.761 2936.62 266.391 2933.16 270.786 2929.4C274.681 2926.05 278.202 2922.16 281.927 2918.61C285.651 2915.06 289.387 2911.6 293.188 2908.17C300.722 2901.37 308.436 2894.77 316.332 2888.39C332.048 2875.67 348.512 2863.9 365.636 2853.15C382.631 2842.49 400.291 2832.94 418.51 2824.54C438.044 2815.55 458.106 2807.32 478.717 2801.12C499.741 2794.79 521.445 2790.59 543.391 2789.4C565.836 2788.27 588.331 2790.14 610.279 2794.98C615.712 2796.15 621.107 2797.48 626.479 2798.89C626.567 2798.92 626.66 2798.91 626.74 2798.86C626.819 2798.82 626.878 2798.74 626.902 2798.66C626.927 2798.57 626.916 2798.48 626.872 2798.4C626.828 2798.32 626.754 2798.26 626.666 2798.23H626.655Z" fill="url(#paint7_linear_308_42)"/>
<path d="M241.254 2488.8C237.568 2528.08 223.917 2565.99 202.141 2598.86C196.51 2607.36 190.231 2615.18 183.738 2623.01C180.563 2626.85 177.695 2630.85 174.256 2634.45C170.818 2638.05 167.313 2641.72 163.769 2645.29C149.778 2659.36 134.83 2672.63 117.965 2683.2C116.103 2684.36 114.219 2685.5 112.318 2686.6C110.187 2687.83 107.704 2688.79 105.726 2690.23C104.864 2690.85 104.138 2691.84 103.369 2692.58C102.341 2693.54 101.208 2694.37 99.9909 2695.06C97.5921 2696.49 95.1787 2697.91 92.7506 2699.3C83.8146 2704.43 74.7249 2709.27 65.4813 2713.83C46.8521 2722.98 27.773 2731.19 8.31679 2738.41C-10.7563 2745.56 -30.1371 2751.93 -49.5728 2757.91C-59.395 2760.93 -69.2374 2763.86 -79.0999 2766.7C-89.3506 2769.69 -99.7221 2772.19 -109.956 2775.24C-115.159 2776.78 -120.311 2778.48 -125.393 2780.38C-127.964 2781.33 -130.776 2782.98 -133.529 2783.12C-135.88 2783.26 -137.797 2782.96 -140.033 2783.81C-150.602 2787.79 -161.128 2791.89 -171.658 2795.96C-181.623 2799.8 -191.737 2803.34 -201.438 2807.83C-211.057 2812.29 -220.374 2817.37 -229.559 2822.67C-231.594 2823.73 -233.491 2825.04 -235.206 2826.56C-237.034 2828.41 -239.269 2829.81 -241.732 2830.63C-242.15 2830.77 -241.974 2831.43 -241.551 2831.29C-237.107 2829.9 -234.355 2826.23 -230.427 2823.96C-225.686 2821.21 -220.918 2818.53 -216.089 2815.95C-206.215 2810.66 -196.011 2806.01 -185.54 2802.03C-175.015 2798.02 -164.528 2793.93 -154.019 2789.88L-146.087 2786.84C-143.34 2785.8 -140.236 2784.09 -137.297 2783.82C-135.292 2783.62 -133.232 2784.2 -131.331 2783.44C-128.585 2782.34 -125.838 2781.24 -123.02 2780.23C-112.698 2776.5 -102.145 2773.87 -91.537 2771.01C-81.4236 2768.27 -71.3926 2765.18 -61.3561 2762.17C-41.5139 2756.23 -21.7596 2749.97 -2.25254 2742.99C16.892 2736.13 35.7894 2728.56 54.2253 2719.97C63.7472 2715.54 73.1409 2710.82 82.4065 2705.82C87.0393 2703.32 91.6281 2700.74 96.173 2698.1C98.277 2696.87 100.743 2695.77 102.65 2694.25C103.518 2693.56 104.232 2692.6 105.045 2691.87C106.269 2690.8 107.626 2689.9 109.083 2689.18C126.112 2679.88 141.378 2667.75 155.436 2654.4C162.709 2647.5 170.037 2640.36 176.706 2632.84C180.085 2629.02 182.919 2624.75 186.386 2621.01C189.573 2617.44 192.557 2613.7 195.324 2609.8C218.599 2578.27 234.393 2541.28 240.276 2502.45C240.961 2497.91 241.51 2493.35 241.924 2488.77C241.968 2488.32 241.282 2488.33 241.238 2488.77L241.254 2488.8Z" fill="url(#paint8_linear_308_42)"/>
<path d="M635 3075.91V2914.89C623.305 2903.5 609.809 2894.12 595.057 2887.12C556.878 2869.06 512.431 2866.88 471.126 2875.67C429.821 2884.46 391.34 2903.66 355.935 2926.66C306.62 2958.68 260.981 2999.02 204.657 3015.9C177.096 3024.14 147.712 3026.5 121.371 3038.07C103.875 3045.76 87.4824 3059.28 79.072 3075.91H635Z" fill="url(#paint9_linear_308_42)"/>
<path d="M-249.934 2796.18C-233.2 2794.6 -216.571 2792.06 -200.131 2788.55C-122.031 2771.93 -49.2819 2735.64 17.6883 2692.16C110.928 2631.61 197.213 2555.34 303.708 2523.43C355.813 2507.82 411.379 2503.39 461.166 2481.52L462.32 2481H-249.934V2796.18Z" fill="url(#paint10_linear_308_42)"/>
<path d="M17.216 3075.91H18.3916C12.9531 3009.33 -15.5687 2947.47 -63.3229 2899.71C-113.566 2849.45 -179.41 2820.49 -249.934 2817.29V2818.46C-108.737 2824.95 5.60842 2936.06 17.216 3075.91Z" fill="#EA227A"/>
<path d="M-249.934 2743.96C-215.787 2746.85 -180.986 2744.23 -147.471 2737.1C-81.1819 2722.99 -19.4359 2692.18 37.4099 2655.28C116.554 2603.89 189.786 2539.15 280.175 2512.07C320.562 2499.98 363.384 2495.78 402.678 2481H-249.94L-249.934 2743.96Z" fill="url(#paint11_linear_308_42)"/>
<path d="M387.022 2481.02C369.338 2560.89 297.984 2620.81 212.88 2620.81C127.777 2620.81 56.4335 2560.89 38.7392 2481.02H37.5527C55.2744 2561.52 127.156 2621.95 212.891 2621.95C298.627 2621.95 370.508 2561.52 388.208 2481.02H387.022Z" fill="#EA227A"/>
<path d="M429.678 2500.25C430.251 2500.23 430.815 2500.39 431.298 2500.7C431.781 2501.01 432.162 2501.45 432.39 2501.98C432.618 2502.5 432.685 2503.09 432.58 2503.65C432.476 2504.21 432.206 2504.73 431.805 2505.14C431.404 2505.55 430.889 2505.83 430.328 2505.95C429.767 2506.06 429.184 2506.01 428.654 2505.79C428.124 2505.57 427.671 2505.2 427.354 2504.72C427.036 2504.24 426.868 2503.68 426.871 2503.11C426.866 2502.74 426.935 2502.37 427.074 2502.02C427.212 2501.68 427.418 2501.36 427.679 2501.09C427.94 2500.83 428.251 2500.62 428.594 2500.47C428.937 2500.33 429.306 2500.25 429.678 2500.25Z" fill="#00255B"/>
<path d="M420.839 2481.02C420.733 2481.32 420.678 2481.63 420.674 2481.95C420.67 2482.32 420.739 2482.69 420.878 2483.03C421.016 2483.38 421.221 2483.69 421.481 2483.96C421.742 2484.23 422.052 2484.44 422.394 2484.59C422.736 2484.73 423.104 2484.81 423.476 2484.81C423.848 2484.82 424.218 2484.75 424.563 2484.61C424.909 2484.47 425.224 2484.27 425.49 2484.01C425.756 2483.75 425.969 2483.44 426.115 2483.09C426.262 2482.75 426.339 2482.38 426.344 2482.01C426.346 2481.67 426.29 2481.34 426.179 2481.02H420.839Z" fill="#00255B"/>
<path d="M427.975 2509.75C428.517 2509.74 429.05 2509.9 429.506 2510.19C429.962 2510.48 430.322 2510.9 430.539 2511.4C430.757 2511.89 430.823 2512.44 430.728 2512.98C430.634 2513.51 430.384 2514.01 430.01 2514.4C429.635 2514.79 429.153 2515.06 428.624 2515.18C428.096 2515.3 427.543 2515.26 427.038 2515.06C426.532 2514.87 426.095 2514.53 425.782 2514.09C425.468 2513.65 425.293 2513.12 425.278 2512.58C425.274 2511.85 425.554 2511.15 426.057 2510.62C426.56 2510.09 427.248 2509.78 427.975 2509.75V2509.75Z" fill="#00255B"/>
<path d="M421.723 2494.41C421.182 2494.41 420.655 2494.24 420.208 2493.93C419.761 2493.62 419.415 2493.19 419.213 2492.69C419.011 2492.19 418.962 2491.64 419.073 2491.11C419.183 2490.58 419.448 2490.09 419.833 2489.71C420.219 2489.33 420.708 2489.07 421.24 2488.97C421.772 2488.87 422.322 2488.92 422.822 2489.13C423.321 2489.34 423.748 2489.69 424.048 2490.14C424.348 2490.59 424.508 2491.12 424.509 2491.67C424.491 2492.4 424.191 2493.09 423.672 2493.6C423.152 2494.12 422.453 2494.41 421.723 2494.41V2494.41Z" fill="#00255B"/>
<path d="M423.822 2522.23C423.817 2521.74 423.958 2521.25 424.228 2520.84C424.498 2520.44 424.884 2520.12 425.337 2519.93C425.79 2519.74 426.288 2519.69 426.769 2519.79C427.25 2519.88 427.691 2520.12 428.035 2520.47C428.38 2520.82 428.612 2521.26 428.702 2521.75C428.793 2522.23 428.737 2522.73 428.542 2523.18C428.347 2523.63 428.022 2524.01 427.609 2524.27C427.196 2524.54 426.713 2524.67 426.223 2524.66C425.906 2524.66 425.592 2524.59 425.299 2524.47C425.007 2524.35 424.742 2524.17 424.519 2523.94C424.296 2523.71 424.12 2523.45 424 2523.15C423.881 2522.86 423.82 2522.54 423.822 2522.23V2522.23Z" fill="#00255B"/>
<path d="M419.966 2498.91C420.455 2498.89 420.937 2499.02 421.352 2499.28C421.768 2499.54 422.097 2499.92 422.3 2500.36C422.502 2500.81 422.569 2501.3 422.491 2501.79C422.413 2502.27 422.194 2502.72 421.862 2503.08C421.529 2503.44 421.098 2503.69 420.622 2503.8C420.147 2503.92 419.648 2503.89 419.188 2503.72C418.729 2503.55 418.329 2503.25 418.039 2502.86C417.749 2502.47 417.582 2501.99 417.559 2501.51C417.535 2501.17 417.58 2500.84 417.689 2500.53C417.799 2500.22 417.972 2499.93 418.198 2499.68C418.424 2499.44 418.697 2499.25 419.001 2499.11C419.305 2498.98 419.633 2498.91 419.966 2498.91V2498.91Z" fill="#00255B"/>
<path d="M411.501 2481.02C411.659 2481.5 411.967 2481.92 412.379 2482.22C412.792 2482.52 413.288 2482.68 413.797 2482.68C414.306 2482.68 414.802 2482.52 415.214 2482.22C415.626 2481.92 415.934 2481.5 416.093 2481.02H411.501Z" fill="#00255B"/>
<path d="M412.017 2492.2C411.706 2492.19 411.399 2492.13 411.116 2492C410.833 2491.87 410.581 2491.68 410.374 2491.45C410.167 2491.22 410.011 2490.95 409.915 2490.65C409.82 2490.35 409.787 2490.04 409.819 2489.73C409.831 2489.44 409.903 2489.15 410.03 2488.89C410.157 2488.63 410.336 2488.4 410.557 2488.21C410.778 2488.02 411.036 2487.87 411.315 2487.79C411.593 2487.7 411.886 2487.67 412.176 2487.7C412.772 2487.73 413.334 2487.99 413.739 2488.42C414.144 2488.86 414.358 2489.44 414.335 2490.04C414.312 2490.64 414.053 2491.2 413.615 2491.6C413.177 2492.01 412.596 2492.22 412 2492.2H412.017Z" fill="#00255B"/>
<path d="M418.367 2508.46C418.98 2508.49 419.557 2508.76 419.975 2509.21C420.393 2509.66 420.618 2510.25 420.603 2510.86C420.591 2511.17 420.517 2511.47 420.386 2511.75C420.256 2512.02 420.072 2512.27 419.844 2512.48C419.616 2512.68 419.35 2512.84 419.06 2512.94C418.771 2513.04 418.464 2513.08 418.158 2513.06C417.866 2513.05 417.578 2512.99 417.312 2512.87C417.045 2512.75 416.805 2512.57 416.606 2512.36C416.407 2512.15 416.253 2511.89 416.152 2511.62C416.052 2511.34 416.008 2511.05 416.022 2510.76C416.02 2510.45 416.08 2510.15 416.198 2509.87C416.316 2509.58 416.489 2509.33 416.708 2509.11C416.927 2508.9 417.186 2508.73 417.471 2508.62C417.756 2508.5 418.061 2508.45 418.367 2508.46V2508.46Z" fill="#00255B"/>
<path d="M426.701 2531.89C426.618 2533.29 425.602 2534.19 424.366 2534.04C424.075 2534.04 423.788 2533.98 423.525 2533.86C423.262 2533.73 423.029 2533.55 422.845 2533.33C422.66 2533.1 422.527 2532.84 422.456 2532.56C422.384 2532.27 422.376 2531.98 422.432 2531.69C422.435 2531.42 422.495 2531.15 422.611 2530.9C422.726 2530.65 422.893 2530.42 423.101 2530.24C423.309 2530.06 423.552 2529.93 423.816 2529.85C424.08 2529.77 424.357 2529.75 424.63 2529.79C424.908 2529.77 425.186 2529.82 425.445 2529.92C425.704 2530.02 425.939 2530.18 426.135 2530.38C426.33 2530.57 426.482 2530.81 426.579 2531.07C426.677 2531.33 426.718 2531.61 426.701 2531.89V2531.89Z" fill="#00255B"/>
<path d="M414.302 2520.03C415.071 2519.52 415.801 2518.67 416.625 2518.57C417.774 2518.41 418.565 2519.33 418.537 2520.52C418.51 2521.72 417.686 2522.6 416.543 2522.4C415.719 2522.25 415.032 2521.38 414.285 2520.83L414.302 2520.03Z" fill="#00255B"/>
<path d="M408.012 2499.27C408.771 2498.72 409.452 2497.93 410.298 2497.69C411.319 2497.4 412.457 2498.64 412.341 2499.73C412.22 2500.92 411.457 2501.81 410.309 2501.61C409.479 2501.46 408.776 2500.6 408.018 2500.06L408.012 2499.27Z" fill="#00255B"/>
<path d="M420.757 2541.14C421.438 2540.7 422.081 2540.04 422.811 2539.91C423.954 2539.74 424.619 2540.54 424.575 2541.71C424.531 2542.88 423.767 2543.6 422.658 2543.36C421.943 2543.2 421.367 2542.44 420.724 2541.95L420.757 2541.14Z" fill="#00255B"/>
<path d="M406.628 2508.91C407.315 2508.49 408.034 2507.71 408.682 2507.76C409.331 2507.81 410.27 2508.86 410.193 2509.32C410.077 2509.71 409.866 2510.06 409.578 2510.35C409.29 2510.64 408.935 2510.85 408.545 2510.97C407.952 2511.04 407.238 2510.16 406.578 2509.7L406.628 2508.91Z" fill="#00255B"/>
<path d="M402.288 2485.81C403.101 2486.91 403.936 2487.57 403.908 2488.15C403.881 2488.74 402.936 2489.3 402.398 2489.87C401.848 2489.32 400.881 2488.85 400.794 2488.23C400.706 2487.61 401.53 2486.96 402.288 2485.81Z" fill="#00255B"/>
<path d="M414.554 2532.06C414.109 2531.44 413.263 2530.78 413.324 2530.22C413.436 2529.85 413.636 2529.52 413.907 2529.25C414.179 2528.98 414.512 2528.78 414.879 2528.67C415.302 2528.59 416.312 2529.54 416.356 2530.08C416.4 2530.63 415.664 2531.37 415.258 2532.03L414.554 2532.06Z" fill="#00255B"/>
<path d="M426.975 2562.78C428.008 2562.11 428.623 2561.41 429.09 2561.49C429.4 2561.6 429.677 2561.79 429.897 2562.04C430.117 2562.28 430.274 2562.58 430.354 2562.9C430.409 2563.25 429.552 2564.08 429.09 2564.09C428.629 2564.11 427.997 2563.44 426.975 2562.78Z" fill="#00255B"/>
<path d="M398.728 2498.02C399.613 2497.36 400.135 2496.68 400.58 2496.72C400.873 2496.81 401.139 2496.97 401.356 2497.18C401.572 2497.4 401.732 2497.66 401.821 2497.96C401.893 2498.28 401.145 2499.1 400.722 2499.13C400.223 2499.15 399.684 2498.6 398.728 2498.02Z" fill="#00255B"/>
<path d="M408.749 2518.62C407.87 2519.29 407.397 2519.92 406.892 2519.94C406.474 2519.94 405.639 2519.23 405.672 2518.91C405.729 2518.61 405.859 2518.32 406.05 2518.08C406.242 2517.84 406.489 2517.66 406.771 2517.53C407.199 2517.44 407.793 2518.06 408.749 2518.62Z" fill="#00255B"/>
<path d="M419.191 2551.35C420.097 2550.72 420.641 2550.06 421.086 2550.12C421.376 2550.21 421.637 2550.38 421.846 2550.61C422.055 2550.83 422.205 2551.1 422.284 2551.4C422.344 2551.72 421.564 2552.5 421.141 2552.52C420.718 2552.55 420.119 2551.97 419.191 2551.35Z" fill="#00255B"/>
<path d="M411.577 2539.97C412.297 2539.42 412.72 2538.87 413.082 2538.92C413.32 2539 413.535 2539.13 413.709 2539.31C413.883 2539.49 414.011 2539.71 414.082 2539.95C414.143 2540.19 413.533 2540.86 413.198 2540.87C412.78 2540.91 412.346 2540.43 411.577 2539.97Z" fill="#00255B"/>
<path d="M132.528 2931.43C131.054 2931.43 129.859 2932.63 129.859 2934.1C129.859 2935.58 131.054 2936.77 132.528 2936.77C134.003 2936.77 135.198 2935.58 135.198 2934.1C135.198 2932.63 134.003 2931.43 132.528 2931.43Z" fill="white"/>
<path d="M79.275 2523.2C77.8005 2523.2 76.6052 2524.39 76.6052 2525.87C76.6052 2527.34 77.8005 2528.54 79.275 2528.54C80.7495 2528.54 81.9448 2527.34 81.9448 2525.87C81.9448 2524.39 80.7495 2523.2 79.275 2523.2Z" fill="white"/>
<path d="M354.539 2712.84C353.065 2712.84 351.87 2714.03 351.87 2715.51C351.87 2716.98 353.065 2718.18 354.539 2718.18C356.014 2718.18 357.209 2716.98 357.209 2715.51C357.209 2714.03 356.014 2712.84 354.539 2712.84Z" fill="#EA227A"/>
<path d="M308.202 2558.65C308.202 2557.93 308.415 2557.23 308.814 2556.63C309.213 2556.03 309.78 2555.57 310.444 2555.29C311.107 2555.02 311.837 2554.95 312.542 2555.09C313.246 2555.23 313.893 2555.57 314.401 2556.08C314.909 2556.59 315.254 2557.24 315.395 2557.94C315.535 2558.65 315.463 2559.38 315.188 2560.04C314.913 2560.7 314.448 2561.27 313.851 2561.67C313.253 2562.07 312.551 2562.28 311.833 2562.28C310.87 2562.28 309.947 2561.9 309.266 2561.22C308.585 2560.54 308.202 2559.61 308.202 2558.65Z" fill="white"/>
<path d="M38.9152 3037.11H43.8208V3020.57H38.9152V3037.11Z" fill="#EA227A"/>
<path d="M33.092 3026.39V3031.3H49.6327V3026.39H33.092Z" fill="#EA227A"/>
<path d="M369.064 2885.12H372.245V2874.4H369.064V2885.12Z" fill="#EA227A"/>
<path d="M365.295 2878.17V2881.36H376.019V2878.17H365.295Z" fill="#EA227A"/>
<path d="M7.66286 2560.38H10.8435V2549.65H7.66286V2560.38Z" fill="white"/>
<path d="M3.88892 2553.43V2556.61H14.6121V2553.43H3.88892Z" fill="white"/>
<path d="M308.202 3037.11L352.089 2993.22" stroke="#EA227A" stroke-miterlimit="10"/>
<path d="M-1.07137 2659.4L43.8208 2614.51" stroke="#EA227A" stroke-miterlimit="10"/>
<path d="M361.444 2617.98L405.04 2574.38" stroke="white" stroke-miterlimit="10"/>
<path d="M14.6176 2974.55L58.2134 2930.95" stroke="white" stroke-miterlimit="10"/>
<path d="M497.703 2604.92C451.675 2604.92 414.362 2642.25 414.362 2688.28C414.362 2734.32 451.675 2771.64 497.703 2771.64C543.731 2771.64 581.043 2734.32 581.043 2688.28C581.043 2642.25 543.731 2604.92 497.703 2604.92Z" stroke="#EA227A" stroke-miterlimit="10"/>
</g>
<path d="M1175 1616V-222H455H-265V1616H1175Z" fill="url(#paint12_linear_308_42)"/>
<path d="M-42.0001 1871L-42.0002 3076L369 3076L780 3076L780 1871L-42.0001 1871Z" fill="url(#paint13_linear_308_42)"/>
<defs>
<linearGradient id="paint0_linear_308_42" x1="438.383" y1="-597.704" x2="-138.585" y2="417.123" gradientUnits="userSpaceOnUse">
<stop stop-opacity="0"/>
<stop offset="0.19" stop-color="#000204" stop-opacity="0.03"/>
<stop offset="0.36" stop-color="#00060F" stop-opacity="0.11"/>
<stop offset="0.53" stop-color="#000F21" stop-opacity="0.25"/>
<stop offset="0.69" stop-color="#001A3B" stop-opacity="0.44"/>
<stop offset="0.84" stop-color="#00295C" stop-opacity="0.69"/>
<stop offset="0.99" stop-color="#003B84" stop-opacity="0.99"/>
<stop offset="1" stop-color="#003C86"/>
</linearGradient>
<linearGradient id="paint1_linear_308_42" x1="217.892" y1="-91.117" x2="-64.9622" y2="406.394" gradientUnits="userSpaceOnUse">
<stop stop-opacity="0"/>
<stop offset="0.02" stop-color="#000205" stop-opacity="0.04"/>
<stop offset="0.16" stop-color="#00142D" stop-opacity="0.33"/>
<stop offset="0.32" stop-color="#00224D" stop-opacity="0.57"/>
<stop offset="0.47" stop-color="#002E66" stop-opacity="0.76"/>
<stop offset="0.63" stop-color="#003678" stop-opacity="0.9"/>
<stop offset="0.8" stop-color="#003A83" stop-opacity="0.97"/>
<stop offset="1" stop-color="#003C86"/>
</linearGradient>
<linearGradient id="paint2_linear_308_42" x1="584.66" y1="195.482" x2="292.404" y2="709.528" gradientUnits="userSpaceOnUse">
<stop stop-opacity="0"/>
<stop offset="0.02" stop-color="#000205" stop-opacity="0.04"/>
<stop offset="0.16" stop-color="#00142D" stop-opacity="0.33"/>
<stop offset="0.32" stop-color="#00224D" stop-opacity="0.57"/>
<stop offset="0.47" stop-color="#002E66" stop-opacity="0.76"/>
<stop offset="0.63" stop-color="#003678" stop-opacity="0.9"/>
<stop offset="0.8" stop-color="#003A83" stop-opacity="0.97"/>
<stop offset="1" stop-color="#003C86"/>
</linearGradient>
<linearGradient id="paint3_linear_308_42" x1="292.021" y1="-417.123" x2="-114.191" y2="297.361" gradientUnits="userSpaceOnUse">
<stop stop-opacity="0"/>
<stop offset="0.19" stop-color="#000204" stop-opacity="0.03"/>
<stop offset="0.36" stop-color="#00060F" stop-opacity="0.11"/>
<stop offset="0.53" stop-color="#000F21" stop-opacity="0.25"/>
<stop offset="0.69" stop-color="#001A3B" stop-opacity="0.44"/>
<stop offset="0.84" stop-color="#00295C" stop-opacity="0.69"/>
<stop offset="0.99" stop-color="#003B84" stop-opacity="0.99"/>
<stop offset="1" stop-color="#003C86"/>
</linearGradient>
<linearGradient id="paint4_linear_308_42" x1="-126.921" y1="1460.52" x2="641.075" y2="109.686" gradientUnits="userSpaceOnUse">
<stop stop-opacity="0"/>
<stop offset="0.19" stop-color="#000204" stop-opacity="0.03"/>
<stop offset="0.36" stop-color="#00060F" stop-opacity="0.11"/>
<stop offset="0.53" stop-color="#000F21" stop-opacity="0.25"/>
<stop offset="0.69" stop-color="#001A3B" stop-opacity="0.44"/>
<stop offset="0.84" stop-color="#00295C" stop-opacity="0.69"/>
<stop offset="0.99" stop-color="#003B84" stop-opacity="0.99"/>
<stop offset="1" stop-color="#003C86"/>
</linearGradient>
<linearGradient id="paint5_linear_308_42" x1="-36.8586" y1="1360.03" x2="614.99" y2="213.486" gradientUnits="userSpaceOnUse">
<stop stop-opacity="0"/>
<stop offset="0.19" stop-color="#000204" stop-opacity="0.03"/>
<stop offset="0.36" stop-color="#00060F" stop-opacity="0.11"/>
<stop offset="0.53" stop-color="#000F21" stop-opacity="0.25"/>
<stop offset="0.69" stop-color="#001A3B" stop-opacity="0.44"/>
<stop offset="0.84" stop-color="#00295C" stop-opacity="0.69"/>
<stop offset="0.99" stop-color="#003B84" stop-opacity="0.99"/>
<stop offset="1" stop-color="#003C86"/>
</linearGradient>
<linearGradient id="paint6_linear_308_42" x1="8.98698" y1="3618.29" x2="532.738" y2="2697.74" gradientUnits="userSpaceOnUse">
<stop stop-opacity="0"/>
<stop offset="0.19" stop-color="#000204" stop-opacity="0.03"/>
<stop offset="0.36" stop-color="#00060F" stop-opacity="0.11"/>
<stop offset="0.53" stop-color="#000F21" stop-opacity="0.25"/>
<stop offset="0.69" stop-color="#001A3B" stop-opacity="0.44"/>
<stop offset="0.84" stop-color="#00295C" stop-opacity="0.69"/>
<stop offset="0.99" stop-color="#003B84" stop-opacity="0.99"/>
<stop offset="1" stop-color="#003C86"/>
</linearGradient>
<linearGradient id="paint7_linear_308_42" x1="208.919" y1="3158.6" x2="465.685" y2="2707.31" gradientUnits="userSpaceOnUse">
<stop stop-opacity="0"/>
<stop offset="0.02" stop-color="#000205" stop-opacity="0.04"/>
<stop offset="0.16" stop-color="#00142D" stop-opacity="0.33"/>
<stop offset="0.32" stop-color="#00224D" stop-opacity="0.57"/>
<stop offset="0.47" stop-color="#002E66" stop-opacity="0.76"/>
<stop offset="0.63" stop-color="#003678" stop-opacity="0.9"/>
<stop offset="0.8" stop-color="#003A83" stop-opacity="0.97"/>
<stop offset="1" stop-color="#003C86"/>
</linearGradient>
<linearGradient id="paint8_linear_308_42" x1="-123.651" y1="2898.53" x2="141.648" y2="2432.24" gradientUnits="userSpaceOnUse">
<stop stop-opacity="0"/>
<stop offset="0.02" stop-color="#000205" stop-opacity="0.04"/>
<stop offset="0.16" stop-color="#00142D" stop-opacity="0.33"/>
<stop offset="0.32" stop-color="#00224D" stop-opacity="0.57"/>
<stop offset="0.47" stop-color="#002E66" stop-opacity="0.76"/>
<stop offset="0.63" stop-color="#003678" stop-opacity="0.9"/>
<stop offset="0.8" stop-color="#003A83" stop-opacity="0.97"/>
<stop offset="1" stop-color="#003C86"/>
</linearGradient>
<linearGradient id="paint9_linear_308_42" x1="141.702" y1="3454.43" x2="510.447" y2="2806.32" gradientUnits="userSpaceOnUse">
<stop stop-opacity="0"/>
<stop offset="0.19" stop-color="#000204" stop-opacity="0.03"/>
<stop offset="0.36" stop-color="#00060F" stop-opacity="0.11"/>
<stop offset="0.53" stop-color="#000F21" stop-opacity="0.25"/>
<stop offset="0.69" stop-color="#001A3B" stop-opacity="0.44"/>
<stop offset="0.84" stop-color="#00295C" stop-opacity="0.69"/>
<stop offset="0.99" stop-color="#003B84" stop-opacity="0.99"/>
<stop offset="1" stop-color="#003C86"/>
</linearGradient>
<linearGradient id="paint10_linear_308_42" x1="521.583" y1="1750.6" x2="-175.578" y2="2975.95" gradientUnits="userSpaceOnUse">
<stop stop-opacity="0"/>
<stop offset="0.19" stop-color="#000204" stop-opacity="0.03"/>
<stop offset="0.36" stop-color="#00060F" stop-opacity="0.11"/>
<stop offset="0.53" stop-color="#000F21" stop-opacity="0.25"/>
<stop offset="0.69" stop-color="#001A3B" stop-opacity="0.44"/>
<stop offset="0.84" stop-color="#00295C" stop-opacity="0.69"/>
<stop offset="0.99" stop-color="#003B84" stop-opacity="0.99"/>
<stop offset="1" stop-color="#003C86"/>
</linearGradient>
<linearGradient id="paint11_linear_308_42" x1="439.918" y1="1841.79" x2="-151.808" y2="2881.82" gradientUnits="userSpaceOnUse">
<stop stop-opacity="0"/>
<stop offset="0.19" stop-color="#000204" stop-opacity="0.03"/>
<stop offset="0.36" stop-color="#00060F" stop-opacity="0.11"/>
<stop offset="0.53" stop-color="#000F21" stop-opacity="0.25"/>
<stop offset="0.69" stop-color="#001A3B" stop-opacity="0.44"/>
<stop offset="0.84" stop-color="#00295C" stop-opacity="0.69"/>
<stop offset="0.99" stop-color="#003B84" stop-opacity="0.99"/>
<stop offset="1" stop-color="#003C86"/>
</linearGradient>
<linearGradient id="paint12_linear_308_42" x1="455" y1="-222" x2="455" y2="1024.68" gradientUnits="userSpaceOnUse">
<stop offset="0.522659" stop-color="#001137" stop-opacity="0"/>
<stop offset="0.720544" stop-color="#001137"/>
</linearGradient>
<linearGradient id="paint13_linear_308_42" x1="369" y1="3076" x2="369" y2="2258.67" gradientUnits="userSpaceOnUse">
<stop offset="0.522659" stop-color="#001137" stop-opacity="0"/>
<stop offset="0.720544" stop-color="#001137"/>
</linearGradient>
</defs>
</svg>
