<svg width="30" height="30" viewBox="0 0 30 30" fill="none" xmlns="http://www.w3.org/2000/svg">
<path d="M28.8281 13.8281H1.17188C0.527344 13.8281 0 14.3555 0 15C0 15.6445 0.527344 16.1719 1.17188 16.1719H28.8281C29.4727 16.1719 30 15.6445 30 15C30 14.3555 29.4727 13.8281 28.8281 13.8281Z" fill="white"/>
<path d="M28.8281 4.45312H1.17188C0.527344 4.45312 0 4.98047 0 5.625C0 6.26953 0.527344 6.79688 1.17188 6.79688H28.8281C29.4727 6.79688 30 6.26953 30 5.625C30 4.98047 29.4727 4.45312 28.8281 4.45312Z" fill="white"/>
<path d="M28.8281 23.2031H1.17188C0.527344 23.2031 0 23.7305 0 24.375C0 25.0195 0.527344 25.5469 1.17188 25.5469H28.8281C29.4727 25.5469 30 25.0195 30 24.375C30 23.7305 29.4727 23.2031 28.8281 23.2031Z" fill="white"/>
</svg>
